<?xml version="1.0" encoding="UTF-8"?>
<svg version="1.1" viewBox="9 -29 559 559" xmlns="http://www.w3.org/2000/svg">
<defs></defs>
<g fill="oklch(58.8% 0.158 241.966)">
   <path d="m449.03 27.702c-10.667-18.475-25.238-22.379-43.713-11.713l-174.07 100.5-6.5e-4 73.901 178.36-102.98 33.925 58.759 110.85 64z"/>
   <path d="m561.38 277.7c10.667-18.475 6.7624-33.046-11.713-43.713l-174.07-100.5-64.001 36.95 178.36 102.98-33.925 58.759-1.6e-4 128z"/>
   <path d="m401.05 500c21.333-1e-5 32-10.667 32-32v-18l1e-5 -14v-169l-64-36.951v205.95l-67.85 1e-5 -110.85 64z"/>
   <path d="m128.37 472.3c10.667 18.475 25.238 22.379 43.713 11.713l174.07-100.5 6.4e-4 -73.901-178.36 102.98-33.925-58.759-110.85-64z"/>
   <path d="m16.018 222.3c-10.667 18.475-6.7624 33.046 11.713 43.713l174.07 100.5 64.001-36.95-178.36-102.98 33.925-58.76 1.6e-4 -128z"/>
   <path d="m176.35-1.5433e-5c-21.333 1.8221e-5 -32 10.667-32 32l-1e-5 18v183l64 36.951-1e-5 -205.95 67.85-1.5e-5 110.85-64z"/>
</g>
</svg>
